<?xml version="1.0" encoding="UTF-8" standalone="no"?>
<!-- Created with Inkscape (http://www.inkscape.org/) -->

<svg
   xmlns:dc="http://purl.org/dc/elements/1.1/"
   xmlns:cc="http://creativecommons.org/ns#"
   xmlns:rdf="http://www.w3.org/1999/02/22-rdf-syntax-ns#"
   xmlns:svg="http://www.w3.org/2000/svg"
   xmlns="http://www.w3.org/2000/svg"
   xmlns:sodipodi="http://sodipodi.sourceforge.net/DTD/sodipodi-0.dtd"
   xmlns:inkscape="http://www.inkscape.org/namespaces/inkscape"
   width="573.14996"
   height="372.1658"
   version="1.1"
   viewBox="0 0 573.14996 372.1658"
   id="svg897"
   sodipodi:docname="connecticut-map-outline.svg"
   inkscape:version="0.92.3 (2405546, 2018-03-11)">
  <defs
     id="defs901" />
  <sodipodi:namedview
     pagecolor="#ffffff"
     bordercolor="#666666"
     borderopacity="1"
     objecttolerance="10"
     gridtolerance="10"
     guidetolerance="10"
     inkscape:pageopacity="0"
     inkscape:pageshadow="2"
     inkscape:window-width="1280"
     inkscape:window-height="737"
     id="namedview899"
     showgrid="false"
     inkscape:showpageshadow="false"
     fit-margin-top="5"
     fit-margin-left="5"
     fit-margin-right="5"
     fit-margin-bottom="5"
     inkscape:zoom="0.67376131"
     inkscape:cx="388.37655"
     inkscape:cy="-45.770308"
     inkscape:window-x="-8"
     inkscape:window-y="-8"
     inkscape:window-maximized="1"
     inkscape:current-layer="g895" />
  <metadata
     id="metadata887">
    <rdf:RDF>
      <cc:Work
         rdf:about="">
        <dc:format>image/svg+xml</dc:format>
        <dc:type
           rdf:resource="http://purl.org/dc/dcmitype/StillImage" />
        <dc:title></dc:title>
      </cc:Work>
    </rdf:RDF>
  </metadata>
  <g
     transform="translate(195.13583,3.5047227)"
     id="g895">
    <path
       d="m -174.07786,362.30022 c -0.93839,-0.47498 -2.30926,-1.47705 -3.04638,-2.22674 -1.26755,-1.2892 -1.6274,-2.07233 -6.63645,-14.44385 -2.91297,-7.19446 -5.42217,-13.50812 -5.57598,-14.03091 -0.15386,-0.52267 -0.19584,-1.4471 -0.0933,-2.0543 0.20805,-1.23142 1.8898,-3.97075 3.17663,-5.17435 0.53447,-0.49992 3.47025,-1.8561 8.07172,-3.72874 6.93274,-2.82143 29.98823,-12.26735 38.68969,-15.85069 4.61827,-1.9022 5.44609,-2.53735 6.62772,-5.08517 0.89729,-1.93464 0.91221,-2.94554 0.065,-4.4076 -0.36251,-0.62558 -3.70289,-5.36014 -7.42291,-10.52124 -3.72001,-5.16111 -7.19801,-10.28408 -7.72856,-11.38429 -1.91801,-3.97721 -1.89032,-3.42727 -1.5461,-30.70101 0.16973,-13.45028 0.49778,-40.13078 0.72897,-59.28822 0.23119,-19.15874 0.55095,-45.45571 0.71053,-58.4352 0.56002,-45.54941 1.11972,-92.772548 1.18554,-100.029693 0.0365,-4.02988 0.13968,-7.44552 0.22922,-7.590275 0.0922,-0.148956 3.5423,-0.28531 7.95442,-0.314067 l 7.79158,-0.05073 1.8663,1.381313 1.86631,1.381346 6.6862,-0.06915 c 3.67737,-0.03813 11.6767,-0.134092 17.77613,-0.213578 6.099427,-0.07949 21.455105,-0.267862 34.124089,-0.418853 12.668338,-0.150894 27.000068,-0.340756 31.848396,-0.421729 4.848328,-0.0811 15.916928,-0.213578 24.597067,-0.29468 8.6801398,-0.0811 18.149324,-0.20647 21.0428116,-0.278201 2.8933584,-0.07206 13.4147314,-0.216487 23.3805424,-0.321176 14.441911,-0.151863 18.20813,-0.11729 18.554509,0.170281 0.262207,0.217779 0.433845,0.826333 0.432682,1.534437 -0.0052,3.067776 1.519218,19.419809 1.861461,19.969103 0.400015,0.64206 1.001395,0.74271 15.300426,2.560971 5.795376,0.736926 5.938838,0.741838 6.440635,0.220041 0.641317,-0.66707 4.672877,-8.438774 8.16768,-15.745031 1.458279,-3.04868 2.900531,-5.792145 3.205002,-6.096519 0.304438,-0.304373 1.293458,-0.827851 2.197823,-1.163082 0.904364,-0.335231 3.883509,-1.44949 6.620609,-2.476088 2.736971,-1.026631 5.232187,-1.940592 5.544967,-2.031031 0.49934,-0.144432 12.94783,-2.306099 22.32234,-3.876401 1.79858,-0.301143 4.37497,-0.735537 5.72526,-0.9650454 2.81232,-0.4779828 5.6196,-0.6351456 18.30345,-1.0245951 5.00471,-0.1538023 13.19437,-0.4073177 18.19908,-0.5636404 5.00472,-0.1563872 13.51425,-0.4132307 18.90994,-0.5709104 5.39568,-0.1576797 13.90521,-0.4147494 18.90993,-0.5712659 16.8937,-0.5284209 36.34388,-1.126893 46.20856,-1.4219286 9.36288,-0.28014 17.31504,-0.5286148 36.25664,-1.1336461 4.69194,-0.149925 10.96197,-0.3444074 13.93366,-0.4323268 2.97155,-0.087887 11.48089,-0.3471215 18.90993,-0.5760479 7.42904,-0.2287649 19.84115,-0.6040943 27.58297,-0.8336992 7.74181,-0.2297342 15.43774,-0.4696788 17.10243,-0.5334616 1.66465,-0.063977 3.16736,-0.02908 3.33938,0.077224 0.30018,0.1854676 0.6221,7.1837977 1.44636,31.4415954 0.1593,4.691941 0.42137,12.049897 0.58209,16.35087 0.16059,4.300973 0.54748,15.049689 0.85952,23.886216 0.67876,19.222386 1.03277,29.093204 1.41246,39.384394 2.01862,54.70969 2.03494,55.43024 1.33116,58.58383 -0.49898,2.23634 -1.68636,5.68584 -2.53257,7.35763 -0.30792,0.60843 -1.47989,2.02622 -2.6043,3.15066 -1.6262,1.62617 -2.61321,2.32293 -4.82506,3.40594 -4.39112,2.15036 -6.81448,4.20404 -10.0537,8.52053 -3.49254,4.65413 -4.57917,7.39252 -4.05088,10.2075 0.45368,2.41611 1.1478,3.38688 5.52978,7.73244 4.42763,4.3908 5.62735,6.07972 6.01477,8.46592 0.38266,2.35808 -1.64737,10.6954 -3.62438,14.88522 -0.91512,1.93936 -3.9827,5.07871 -5.9369,6.07552 -1.22557,0.62522 -9.69601,2.564 -11.20236,2.564 -1.71687,0 -4.44702,-2.07019 -7.09171,-5.37726 -0.81768,-1.0225 -2.19928,-2.30206 -3.14717,-2.91472 -2.28403,-1.47621 -3.45635,-1.46539 -7.49948,0.0695 -5.12556,1.94576 -8.51761,3.99111 -13.1543,7.93148 -2.25592,1.91714 -7.03872,5.47227 -8.53086,6.34112 -0.70381,0.40981 -2.04231,0.94369 -2.97446,1.18641 -3.01976,0.78633 -4.62506,0.59957 -13.58824,-1.58074 -7.75378,-1.88614 -8.47529,-2.01329 -10.73257,-1.89196 -1.55621,0.0837 -3.02916,0.36153 -4.12616,0.77838 -0.93839,0.35656 -2.40995,0.91254 -3.27024,1.23556 -1.191,0.44722 -2.24219,0.58907 -4.4076,0.59472 -2.6624,0.006 -3.0904,-0.0782 -6.71658,-1.3341 -3.42889,-1.18774 -4.14846,-1.34157 -6.27552,-1.34157 -3.29383,0 -4.60502,0.45588 -10.72545,3.72906 -7.4326,3.97462 -19.6531,9.95967 -24.90823,12.19853 -4.63443,1.97461 -8.99421,2.91746 -24.31273,5.25803 -10.16969,1.55379 -10.73417,1.67748 -13.13426,2.87708 -2.32491,1.16204 -4.38079,2.81051 -7.24843,5.81185 -2.45528,2.56992 -5.51879,4.75075 -7.95184,5.66128 -0.89929,0.33646 -4.07317,0.98156 -7.05325,1.43353 -2.97996,0.45198 -7.0817,1.16376 -9.11473,1.58181 -8.00742,1.6463 -14.79766,0.88798 -33.83975,-3.77914 -11.967827,-2.93333 -13.875494,-3.01595 -21.008885,-0.90964 -4.279971,1.26383 -7.292041,2.58957 -11.545839,5.08227 -7.722753,4.52521 -9.059476,4.78338 -19.824671,3.82987 -5.021195,-0.44477 -7.793191,-0.39155 -10.890887,0.20905 -3.25796,0.63153 -22.973418,6.00153 -25.47723,6.9392 -1.439377,0.53912 -6.948571,3.10264 -12.2427964,5.69683 -5.2942259,2.59419 -10.7231904,5.08582 -12.0641143,5.53689 -1.3409239,0.45106 -6.0541903,1.59647 -10.4737463,2.54484 -10.78749,2.31502 -11.666684,2.67145 -17.514404,7.09979 -3.738108,2.83084 -5.374358,3.56104 -7.96218,3.55393 -1.71593,-0.003 -2.237436,-0.13861 -3.780436,-0.9705 -0.984432,-0.53078 -2.328038,-1.43279 -2.985769,-2.00454 -3.119409,-2.71135 -5.909758,-3.90419 -8.296603,-3.54618 -1.320826,0.19807 -8.067515,3.35005 -11.054705,5.16466 -0.925335,0.56212 -3.080022,2.14813 -4.788229,3.52453 -5.478724,4.41439 -7.601908,4.95786 -13.768865,3.52388 -2.722463,-0.63311 -3.802731,-0.75508 -5.660637,-0.63918 -2.907996,0.18159 -4.581113,0.85166 -9.522822,3.81501 -6.237721,3.74037 -7.801911,4.40404 -14.059671,5.96566 -6.49007,1.61957 -8.32277,2.57492 -15.86296,8.26946 -5.28454,3.9911 -12.04408,8.54249 -14.57989,9.81718 -2.76172,1.38819 -5.18792,2.08453 -9.13185,2.6211 -4.60793,0.62687 -8.05588,1.58048 -12.45863,3.44569 -4.77208,2.02172 -5.73657,2.14334 -7.98286,1.00634 z"
       id="path889"
       style="fill:#f05f40;fill-opacity:1;stroke:#000000;stroke-width:1.28238034;stroke-miterlimit:4;stroke-dasharray:none"
       inkscape:connector-curvature="0" />
    <text
       x="150.84369"
       y="344.81384"
       font-size="10.583px"
       letter-spacing="0px"
       word-spacing="0px"
       style="font-size:34.19517517px;line-height:1.25;font-family:sans-serif;letter-spacing:0px;word-spacing:0px;fill:#000000;stroke-width:0.85489553"
       xml:space="preserve"
       id="text893"><tspan
         x="150.84369"
         y="344.81384"
         font-size="5.6444px"
         id="tspan891"
         style="font-size:13.67872429px;fill:#646464;stroke-width:0.85489553"></tspan></text>
  </g>
</svg>
