<?xml version="1.0" encoding="UTF-8" standalone="no"?>
<!-- Created with Inkscape (http://www.inkscape.org/) -->

<svg
   xmlns:dc="http://purl.org/dc/elements/1.1/"
   xmlns:cc="http://creativecommons.org/ns#"
   xmlns:rdf="http://www.w3.org/1999/02/22-rdf-syntax-ns#"
   xmlns:svg="http://www.w3.org/2000/svg"
   xmlns="http://www.w3.org/2000/svg"
   xmlns:sodipodi="http://sodipodi.sourceforge.net/DTD/sodipodi-0.dtd"
   xmlns:inkscape="http://www.inkscape.org/namespaces/inkscape"
   width="201.23892"
   height="385.70337"
   viewBox="0 0 201.23892 385.70337"
   version="1.1"
   id="svg1731"
   inkscape:version="0.92.3 (2405546, 2018-03-11)"
   sodipodi:docname="new-jersey-map-outline.svg">
  <defs
     id="defs1725" />
  <sodipodi:namedview
     id="base"
     pagecolor="#ffffff"
     bordercolor="#666666"
     borderopacity="1.0"
     inkscape:pageopacity="0.0"
     inkscape:pageshadow="2"
     inkscape:zoom="0.7"
     inkscape:cx="15.856175"
     inkscape:cy="93.358537"
     inkscape:document-units="px"
     inkscape:current-layer="layer1"
     showgrid="false"
     units="px"
     fit-margin-top="5"
     fit-margin-left="5"
     fit-margin-right="5"
     fit-margin-bottom="5"
     inkscape:window-width="1280"
     inkscape:window-height="737"
     inkscape:window-x="-8"
     inkscape:window-y="-8"
     inkscape:window-maximized="1"
     inkscape:showpageshadow="false" />
  <metadata
     id="metadata1728">
    <rdf:RDF>
      <cc:Work
         rdf:about="">
        <dc:format>image/svg+xml</dc:format>
        <dc:type
           rdf:resource="http://purl.org/dc/dcmitype/StillImage" />
        <dc:title></dc:title>
      </cc:Work>
    </rdf:RDF>
  </metadata>
  <g
     inkscape:label="Layer 1"
     inkscape:groupmode="layer"
     id="layer1"
     transform="translate(-25.504251,-123.18723)">
    <path
       inkscape:connector-curvature="0"
       id="path1750"
       d="m 100.8869,489.77492 c -0.4308,-0.32857 -1.08957,-1.00178 -1.46389,-1.49603 -0.619671,-0.81813 -0.68068,-1.00127 -0.681525,-2.04507 -0.0011,-1.30305 0.643318,-4.34014 1.488025,-7.01376 0.35272,-1.11638 1.38935,-3.41646 2.69708,-5.98416 4.73473,-9.29669 5.66449,-12.88195 4.05353,-15.63085 -0.69862,-1.19212 -2.52986,-3.05787 -3.69748,-3.76713 -1.33872,-0.81324 -3.990008,-1.53361 -6.162544,-1.67439 -1.574046,-0.10192 -1.871905,-0.18669 -3.717439,-1.05667 -1.10347,-0.52017 -2.796974,-1.20597 -3.76335,-1.524 -1.664479,-0.54777 -1.817331,-0.56733 -2.901403,-0.37146 -0.64414,0.11648 -2.082877,0.64626 -3.291363,1.21218 -2.350162,1.10055 -3.825203,1.3839 -5.06835,0.97363 -0.947213,-0.31261 -1.858332,-1.42059 -2.274969,-2.76654 -0.920771,-2.97446 -2.50886,-5.30973 -4.421932,-6.50242 -0.526631,-0.32831 -1.790983,-1.43437 -2.809678,-2.45787 -1.624793,-1.63245 -2.077617,-1.9738 -3.688532,-2.78024 -1.009983,-0.50561 -2.012546,-0.91938 -2.227932,-0.91945 -0.626529,0 -2.553103,-0.99376 -3.385836,-1.74608 -0.421004,-0.38036 -1.006061,-1.11789 -1.300163,-1.63898 -0.704633,-1.24857 -2.516868,-2.92083 -4.753301,-4.38614 -1.98014,-1.29742 -2.407954,-1.69414 -5.096695,-4.72611 -0.997349,-1.1247 -2.564139,-2.69802 -3.481763,-3.49628 -0.917601,-0.79826 -1.692824,-1.52036 -1.722695,-1.60467 -0.02982,-0.0843 -0.870376,-1.06984 -1.867725,-2.19008 -2.049602,-2.30211 -3.462719,-3.43352 -4.851085,-3.88402 -1.704718,-0.55315 -3.455336,-1.57922 -4.556609,-2.67073 -1.064302,-1.05489 -1.065923,-1.05815 -0.949895,-1.90915 0.130002,-0.95337 1.071837,-3.05731 1.92138,-4.2921 0.764432,-1.11105 1.634919,-2.99157 1.639505,-3.54185 0.0021,-0.24935 0.204514,-1.22857 0.449853,-2.17606 0.249731,-0.96445 0.447677,-2.24797 0.449713,-2.91601 0.0045,-1.43987 -0.276943,-2.05754 -2.104041,-4.61957 -0.707333,-0.99185 -1.379294,-2.08076 -1.493248,-2.41976 -0.585031,-1.74059 -0.02651,-3.33061 2.204616,-6.27632 0.980944,-1.29512 1.941564,-2.93184 3.352572,-5.71216 3.213749,-6.33252 4.956404,-9.65854 5.414723,-10.33443 0.920231,-1.35711 3.370595,-3.95347 6.363394,-6.74255 6.201432,-5.7793 7.587942,-6.47403 12.951756,-6.48955 3.348075,-0.009 5.471014,-0.58543 8.746198,-2.37193 1.107719,-0.60424 2.949285,-1.46936 4.092323,-1.92246 2.263063,-0.8971 3.269876,-1.50494 4.146381,-2.5032 1.088816,-1.2401 1.179437,-1.5775 1.1955,-4.45101 0.01409,-2.56815 0.027,-2.65051 0.546075,-3.53608 0.707052,-1.20649 2.170493,-2.61352 3.480613,-3.3465 1.301173,-0.72797 1.947944,-1.23918 5.417637,-4.28202 1.496036,-1.312 3.617684,-3.02248 4.714789,-3.80111 1.097106,-0.77858 2.933153,-2.14999 4.080113,-3.04756 2.395127,-1.87428 4.002757,-2.69384 7.552087,-3.84988 3.5477,-1.15556 4.55773,-1.747 6.96686,-4.07974 2.61317,-2.53028 4.51274,-3.58584 7.29292,-4.05259 0.9757,-0.16391 2.19973,-0.48648 2.72009,-0.71701 1.16594,-0.51658 2.92555,-2.34875 3.22925,-3.36245 0.18787,-0.62711 0.15969,-0.8115 -0.26632,-1.74206 -0.57345,-1.25257 -1.66321,-2.81905 -3.6677,-5.27223 -1.70276,-2.08387 -2.76889,-3.09042 -4.7541,-4.48839 -2.46593,-1.73648 -4.12957,-3.70028 -5.72428,-6.75704 -0.88731,-1.70088 -2.06233,-2.98754 -4.81668,-5.27435 -2.35122,-1.9521 -3.59845,-3.26879 -4.1845,-4.41754 -0.18622,-0.36511 -0.66328,-1.60525 -1.06002,-2.75583 -0.94898,-2.75212 -1.29535,-3.39626 -2.437873,-4.53371 -1.329517,-1.32355 -2.177796,-1.68775 -4.74851,-2.03866 -1.807116,-0.24666 -2.319752,-0.38902 -3.023539,-0.83949 -1.169809,-0.74879 -2.272409,-1.99376 -2.814633,-3.17809 -0.442163,-0.96583 -0.452918,-1.08101 -0.35025,-3.74921 0.05824,-1.514 0.157571,-4.10223 0.220741,-5.75161 0.127982,-3.34066 -0.03335,-4.37997 -1.002093,-6.45817 -0.687608,-1.47502 -2.319634,-3.10167 -3.885227,-3.87241 l -1.198129,-0.58982 -2.33781,0.12939 c -2.169718,0.12 -2.392173,0.10168 -3.09387,-0.25643 -0.960199,-0.48984 -2.066087,-1.48601 -2.589008,-2.33211 -0.381929,-0.618 -0.409052,-0.88125 -0.449325,-4.36071 -0.03076,-2.64969 0.03053,-4.0513 0.214635,-4.92747 0.191622,-0.91127 0.212991,-1.49599 0.08383,-2.28596 -0.09558,-0.58384 -0.174245,-1.54559 -0.174949,-2.13727 -5.4e-4,-0.59165 -0.09276,-1.79124 -0.205007,-2.66573 -0.170957,-1.33348 -0.157807,-1.77431 0.08219,-2.73237 0.157337,-0.62829 0.330642,-1.60476 0.385052,-2.1699 0.179646,-1.86709 0.823997,-4.16489 1.404006,-5.00793 0.640641,-0.93113 1.436201,-1.46612 4.29463,-2.88804 3.218166,-1.60087 4.898403,-3.34566 5.52216,-5.73433 0.150527,-0.57677 0.609808,-1.61416 1.02041,-2.30531 0.862204,-1.45133 2.184324,-4.67099 2.317825,-5.64444 0.167669,-1.22318 -0.800185,-3.24076 -4.552497,-9.48929 -2.047724,-3.41 -2.462951,-4.38699 -2.466239,-5.80283 -0.0047,-2.35413 1.341846,-3.89974 5.193398,-5.95766 1.279334,-0.68354 2.76405,-1.57808 3.29937,-1.98784 1.668543,-1.2772 5.160122,-5.32655 6.387629,-7.40804 0.607718,-1.03048 1.371294,-2.20003 1.696839,-2.59899 0.32557,-0.39893 0.887496,-1.18793 1.248736,-1.75334 0.361238,-0.5654 1.209328,-1.50209 1.884648,-2.08156 2.08401,-1.78819 5.25469,-5.11008 6.08982,-6.38023 1.76083,-2.67815 3.15634,-5.44373 3.56102,-7.05722 0.62244,-2.48181 1.61704,-5.66459 2.10319,-6.73034 1.22812,-2.69236 3.51264,-5.7953 6.09285,-8.27553 2.92265,-2.80942 3.71532,-3.4146 5.95763,-4.54844 l 2.08539,-1.05448 2.01926,-0.0735 c 2.67704,-0.0975 3.5032,0.15804 6.58676,2.03619 1.35061,0.82266 5.0669,3.08544 8.25846,5.02836 11.86632,7.22388 19.35822,11.91465 24.31314,15.22278 4.08448,2.72699 7.45501,4.67644 18.93607,10.95231 3.14168,1.71734 8.81305,4.93901 12.603,7.15929 3.78998,2.22027 9.37975,5.45955 12.4217,7.19838 6.03038,3.44708 7.04262,4.23186 8.04013,6.23365 0.70959,1.42392 0.64635,2.39464 -0.43864,6.7333 -1.79871,7.19274 -4.46561,14.39862 -7.57164,20.45833 -1.04801,2.04457 -2.28986,4.47223 -2.75969,5.39474 -0.94024,1.84617 -1.64252,3.89748 -2.09527,6.12023 -0.447,2.19442 -1.13022,3.42204 -3.54327,6.36651 -2.00707,2.4491 -4.46918,4.42313 -5.51678,4.42313 -0.21816,0 -0.86599,-0.21487 -1.43949,-0.47739 -0.90154,-0.41273 -1.19844,-0.46282 -2.19269,-0.36997 -2.32829,0.21745 -3.98742,1.37996 -6.64406,4.65547 -1.46269,1.80341 -1.69557,2.39161 -2.0473,5.17092 -0.32362,2.5575 -0.49049,2.97366 -2.25277,5.61873 -1.4534,2.18141 -2.5335,4.15915 -2.92841,5.36219 -0.20924,0.63698 -0.56595,1.52713 -0.79298,1.9781 -0.22708,0.45097 -0.60058,1.40649 -0.83015,2.12338 -0.36338,1.13475 -0.38951,1.39656 -0.20195,2.02279 0.40196,1.34165 2.99496,3.76367 4.96962,4.64194 1.27694,0.56796 4.67022,0.77696 6.01479,0.37049 1.26358,-0.382 2.4708,-0.33552 4.83984,0.18622 1.84767,0.40699 2.50144,0.67336 6.14765,2.5048 4.43381,2.22707 6.51883,2.92306 8.16023,2.72401 0.6962,-0.0845 0.88749,-0.0326 1.30279,0.35281 0.29377,0.27267 0.53121,0.72915 0.59886,1.15147 0.0618,0.38487 0.35265,1.18935 0.64668,1.78777 0.64637,1.31561 0.69517,2.44322 0.17777,4.10599 -0.32571,1.04645 -0.33473,1.23333 -0.10356,2.14689 0.13925,0.55035 0.30603,1.49026 0.37061,2.08868 0.0646,0.59842 0.24262,1.53685 0.39564,2.08539 0.55338,1.9838 0.58609,2.86261 0.21933,5.8935 -0.19303,1.59579 -0.56178,3.63583 -0.81923,4.53345 -0.25747,0.89764 -0.75035,2.6929 -1.09527,3.98944 -0.35812,1.3461 -0.85004,2.72268 -1.14668,3.20885 -0.2857,0.46827 -0.67937,1.4067 -0.87474,2.08539 -0.19538,0.67868 -0.56599,1.91239 -0.82358,2.74158 -0.44822,1.44282 -0.45592,1.53865 -0.17941,2.2299 0.26656,0.66624 0.26397,0.87989 -0.0336,2.75384 -0.19256,1.21386 -0.49145,2.36 -0.74232,2.84758 -0.39546,0.7686 -0.42244,1.04196 -0.46431,4.70452 -0.0437,3.82474 -0.0526,3.90585 -0.54464,4.94617 -0.67251,1.42202 -1.45241,2.54378 -2.71906,3.91099 -0.64776,0.69914 -1.05618,1.30051 -1.05618,1.55509 0,0.47716 -0.69263,1.20367 -1.14752,1.20367 -0.16955,0 -0.47121,-0.10191 -0.67058,-0.22637 -0.54972,-0.3433 -1.25642,0.14348 -1.8748,1.29145 -0.46137,0.85645 -0.52339,1.16563 -0.55443,2.76384 -0.0286,1.46929 0.0249,1.89036 0.29159,2.29469 0.4535,0.68773 0.40966,1.4432 -0.12446,2.1434 -0.33865,0.44399 -0.45334,0.81547 -0.45334,1.46839 0,0.89588 -0.44832,2.66925 -0.99895,3.95147 -0.26597,0.61939 -0.27933,0.85685 -0.0946,1.6821 0.21041,0.94016 0.20102,0.98629 -0.4337,2.14111 -0.35681,0.64914 -0.64875,1.36845 -0.64875,1.59847 0,0.75491 -0.72847,3.99398 -1.09339,4.86172 -0.19656,0.46729 -0.35732,1.04293 -0.35732,1.2792 0,0.23626 -0.22638,0.79234 -0.50296,1.23575 -1.43162,2.29476 -2.96053,5.95716 -3.6491,8.74119 l -0.34795,1.40682 0.46017,1.49458 c 0.8202,2.66406 0.97429,3.01727 1.69827,3.89343 0.39241,0.47482 0.84373,1.20451 1.00299,1.62148 0.27506,0.72022 0.27041,0.79964 -0.0925,1.58767 -0.21018,0.45627 -0.54535,1.1853 -0.74484,1.62009 -0.19937,0.43481 -0.36267,0.89264 -0.36267,1.01738 0,0.1247 -0.36721,0.58879 -0.81601,1.03126 -0.44884,0.44247 -0.81743,0.94348 -0.81912,1.11338 -0.002,0.17002 -0.24514,0.71691 -0.54093,1.2156 -0.29582,0.49866 -0.53922,1.0903 -0.54093,1.3147 -0.005,0.64459 -0.57825,1.05662 -1.80655,1.29829 -1.64203,0.32303 -1.85707,0.49882 -7.69014,6.28629 -0.9123,0.90516 -2.14443,1.96598 -2.73808,2.3574 -0.59363,0.39141 -1.34847,1.06482 -1.67738,1.49643 -0.51186,0.67174 -0.59865,0.93299 -0.60236,1.81339 -0.002,0.56573 -0.0761,1.33788 -0.16391,1.71593 -0.14841,0.639 -0.0829,1.12237 0.47661,3.51967 0.0716,0.30727 -0.0467,0.48652 -0.51566,0.78057 -0.80101,0.50224 -1.82595,0.37817 -2.99367,-0.36239 -0.99836,-0.63312 -1.66277,-0.83019 -3.32725,-0.98692 -1.32648,-0.12493 -1.68249,0.0322 -2.68456,1.1838 -1.13141,1.30043 -1.19371,2.09887 -0.32791,4.20282 1.8201,4.42306 2.16067,5.02885 2.82726,5.02885 0.16251,0 0.67986,-0.24373 1.14957,-0.54162 3.014,-1.9114 4.25973,-1.71442 5.28035,0.83504 0.76731,1.91671 0.47053,2.98059 -1.75211,6.28092 -1.84514,2.73977 -2.69734,3.48658 -4.4926,3.93705 -1.45397,0.36486 -1.96722,0.74857 -2.79775,2.09162 -0.43173,0.69815 -0.91309,1.52243 -1.0697,1.83175 -0.2976,0.58775 -1.71971,2.38721 -2.82886,3.5795 -0.73448,0.7895 -3.61952,2.3208 -5.33935,2.834 -0.61126,0.18247 -1.95818,0.38513 -2.99319,0.45053 -1.75367,0.11084 -1.9096,0.0927 -2.28937,-0.26391 l -0.4075,-0.38284 -1.03391,0.72426 c -0.56864,0.39832 -1.25703,0.77325 -1.52971,0.83314 -0.27269,0.0599 -0.92387,0.48335 -1.44705,0.94103 l -0.95125,0.83213 0.12305,0.98448 c 0.10896,0.8726 0.0754,1.03504 -0.29535,1.42976 -0.65111,0.69306 -1.60199,0.87221 -2.79261,0.52609 -0.54858,-0.15945 -1.04455,-0.36624 -1.10215,-0.45942 -0.0575,-0.0932 -0.46395,-0.16931 -0.90299,-0.16931 -0.79361,0 -1.53772,0.48387 -1.53772,0.99993 0,0.33564 0.74155,0.91821 1.9149,1.5043 0.60438,0.30192 1.2164,0.69052 1.36002,0.86359 0.43249,0.52109 0.32588,1.71279 -0.21792,2.43501 -0.26278,0.34907 -0.68481,1.04828 -0.93782,1.55383 -0.25303,0.50552 -0.97617,1.53595 -1.60699,2.28988 -1.95828,2.34027 -4.41372,5.97092 -5.07108,7.49812 -0.87331,2.02893 -2.2179,4.12379 -3.56181,5.54928 -0.76912,0.81585 -1.28505,1.56749 -1.58859,2.31451 -0.59447,1.46302 -1.17112,3.97813 -1.17112,5.10797 0,1.17697 -0.53556,2.21877 -1.43129,2.78425 -0.38416,0.2425 -0.96321,0.87488 -1.28678,1.40529 -0.32355,0.53039 -1.09441,1.49477 -1.71297,2.14304 -0.61857,0.6483 -1.46643,1.68505 -1.88412,2.3039 -0.66997,0.99263 -2.23092,4.02329 -2.89647,5.62366 -0.44911,1.07996 -1.48432,2.19691 -2.88755,3.11552 -0.77579,0.50789 -1.61453,0.92702 -1.86388,0.93141 -0.58761,0.009 -3.47469,1.79244 -4.24207,2.6185 -0.63794,0.68672 -4.09923,2.4936 -5.63157,2.9398 -2.00302,0.58327 -2.61746,0.55274 -3.57513,-0.17777 z"
       style="fill:#f05f40;fill-opacity:1;stroke:#000000;stroke-width:0.86985189;stroke-miterlimit:4;stroke-dasharray:none;stroke-opacity:1"
       sodipodi:nodetypes="ccccccccccccsccccccccccccccccscccccccscccccccccccccccccccsccccccccccccccccccccccccscccccccsccccsccccccccccccsccscccccccccccccccccccscccccscccccccsscccccscccscscsccccccsccccccccccccccccsccccccccccccsccccccssccccccccsccccccccccc" />
    <text
       xml:space="preserve"
       style="font-style:normal;font-weight:normal;font-size:24.852911px;line-height:1.25;font-family:sans-serif;letter-spacing:0px;word-spacing:0px;fill:#000000;fill-opacity:1;stroke:none;stroke-width:0.62132275"
       x="56.951157"
       y="503.75266"
       id="text1760"><tspan
         sodipodi:role="line"
         id="tspan1758"
         x="56.951157"
         y="503.75266"
         style="font-size:9.11273384px;fill:#646464;fill-opacity:1;stroke-width:0.62132275"></tspan></text>
  </g>
</svg>
