<?xml version="1.0" encoding="UTF-8" standalone="no"?>
<!-- Created with Inkscape (http://www.inkscape.org/) -->

<svg
   xmlns:dc="http://purl.org/dc/elements/1.1/"
   xmlns:cc="http://creativecommons.org/ns#"
   xmlns:rdf="http://www.w3.org/1999/02/22-rdf-syntax-ns#"
   xmlns:svg="http://www.w3.org/2000/svg"
   xmlns="http://www.w3.org/2000/svg"
   xmlns:sodipodi="http://sodipodi.sourceforge.net/DTD/sodipodi-0.dtd"
   xmlns:inkscape="http://www.inkscape.org/namespaces/inkscape"
   width="480.5838"
   height="381.07059"
   viewBox="0 0 480.5838 381.07059"
   version="1.1"
   id="svg1805"
   inkscape:version="0.92.3 (2405546, 2018-03-11)"
   sodipodi:docname="new-york-map-outline.svg">
  <defs
     id="defs1799" />
  <sodipodi:namedview
     id="base"
     pagecolor="#ffffff"
     bordercolor="#666666"
     borderopacity="1.0"
     inkscape:pageopacity="0.0"
     inkscape:pageshadow="2"
     inkscape:zoom="0.72506066"
     inkscape:cx="145.73044"
     inkscape:cy="42.786775"
     inkscape:document-units="px"
     inkscape:current-layer="layer1"
     showgrid="false"
     units="px"
     fit-margin-top="5"
     fit-margin-left="5"
     fit-margin-right="5"
     fit-margin-bottom="5"
     inkscape:showpageshadow="false"
     showborder="true"
     inkscape:window-width="1280"
     inkscape:window-height="737"
     inkscape:window-x="-8"
     inkscape:window-y="-8"
     inkscape:window-maximized="1" />
  <metadata
     id="metadata1802">
    <rdf:RDF>
      <cc:Work
         rdf:about="">
        <dc:format>image/svg+xml</dc:format>
        <dc:type
           rdf:resource="http://purl.org/dc/dcmitype/StillImage" />
        <dc:title></dc:title>
      </cc:Work>
    </rdf:RDF>
  </metadata>
  <g
     inkscape:label="Layer 1"
     inkscape:groupmode="layer"
     id="layer1"
     transform="translate(-12.258618,-137.49579)">
    <text
       xml:space="preserve"
       style="font-style:normal;font-weight:normal;font-size:11.57698822px;line-height:1.25;font-family:sans-serif;letter-spacing:0px;word-spacing:0px;fill:#000000;fill-opacity:1;stroke:none;stroke-width:0.78934008"
       x="145.03387"
       y="501.2298"
       id="text1834"><tspan
         sodipodi:role="line"
         id="tspan1832"
         x="145.03387"
         y="501.2298"
         style="font-size:11.57698822px;fill:#646464;fill-opacity:1;stroke-width:0.78934008"></tspan></text>
    <path
       inkscape:connector-curvature="0"
       id="path834"
       d="m 387.52661,512.57542 c -3.01186,-0.12828 -3.3033,-0.18437 -4.09564,-0.78983 -0.46919,-0.35845 -1.15381,-1.20432 -1.52138,-1.87965 l -0.66833,-1.22794 2.34755,-7.63095 c 3.13743,-10.1984 3.13892,-9.97814 -0.11814,-17.34739 -2.75922,-6.24316 -3.85825,-7.3802 -12.6524,-13.09003 -6.83798,-4.43974 -10.97207,-7.14225 -20.07577,-13.12377 -10.01084,-6.57754 -9.3705,-6.24982 -20.77414,-10.63192 -3.86115,-1.4837 -7.54151,-3.05382 -8.1786,-3.48915 -1.73537,-1.18579 -3.52197,-3.11624 -4.78878,-5.17438 -1.05127,-1.70787 -15.09444,-25.23772 -17.88583,-29.96824 -1.49307,-2.53031 -3.45315,-4.53768 -5.22098,-5.34706 l -1.30026,-0.59526 -13.49108,0.3668 c -7.42012,0.20167 -17.78487,0.47999 -23.03279,0.6183 -5.24796,0.13842 -13.72396,0.3622 -18.83557,0.49753 -5.11162,0.13544 -15.65087,0.41301 -23.42054,0.6171 -7.76967,0.20406 -18.25313,0.483 -23.29661,0.61973 -5.04347,0.13663 -15.58272,0.41596 -23.42053,0.62053 -22.43806,0.58563 -41.46588,1.09098 -51.42604,1.36589 -5.04347,0.13902 -15.4712,0.41728 -23.172708,0.61803 -7.7015,0.20078 -26.82451,0.70496 -42.49557,1.12057 l -28.4928,0.75559 -0.993837,-0.69849 c -0.546607,-0.3842 -1.31741,-1.22183 -1.712851,-1.86145 l -0.718983,-1.16294 0.929845,-5.88223 c 1.004757,-6.35617 1.137217,-6.8955 2.053517,-8.36008 1.234474,-1.97308 3.011585,-3.31394 11.526882,-8.69704 17.059767,-10.78466 17.104517,-10.81667 27.060317,-19.36287 7.12173,-6.11342 7.75157,-6.87876 10.78242,-13.10244 4.11482,-8.44952 4.30024,-8.92038 4.29391,-10.90355 -0.003,-1.02101 -0.16796,-2.11831 -0.39979,-2.66399 -0.21689,-0.51036 -2.0358,-3.80038 -4.04215,-7.31117 -4.69111,-8.20879 -4.66193,-8.14232 -4.65316,-10.5965 0.006,-1.97219 0.0239,-2.0227 3.15988,-9.54171 2.85431,-6.84335 3.26326,-7.67227 4.3196,-8.75554 2.43309,-2.49514 1.25208,-2.27888 17.79045,-3.25765 35.454378,-2.0983 40.954508,-2.39535 42.276478,-2.28339 2.47966,0.21003 4.23565,1.37556 9.19052,6.10008 4.60766,4.3935 5.96347,5.33026 8.11902,5.60965 0.84882,0.11009 2.38836,-0.15841 6.44376,-1.12397 9.00996,-2.14495 19.46064,-4.62091 24.65972,-5.84238 5.93531,-1.39441 7.95404,-2.04659 10.9048,-3.5229 9.6972,-4.85173 25.54416,-14.39004 29.28024,-17.62386 1.10002,-0.95216 3.28394,-3.27262 4.85317,-5.15663 5.33008,-6.39934 5.31529,-6.35587 5.53188,-16.23864 0.15006,-6.84827 0.13096,-7.34063 -0.33426,-8.65097 -0.64186,-1.80737 -1.33808,-2.88432 -3.43426,-5.31234 -2.92853,-3.39216 -3.84584,-5.21116 -4.66504,-9.2505 -0.47885,-2.36116 -0.37405,-3.34447 0.53527,-5.02203 0.95476,-1.76142 2.21668,-2.83208 12.22394,-10.37096 5.11161,-3.85079 9.94482,-7.63014 10.74041,-8.39853 2.22247,-2.14642 3.26431,-3.79139 7.32057,-11.55835 2.9813,-5.70867 4.08701,-7.58259 5.37468,-9.10886 1.79582,-2.12858 1.28107,-1.72055 34.18629,-27.09952 17.31153,-13.35197 17.88517,-13.737 21.21967,-14.24261 0.8697,-0.13187 10.0015,-0.79557 20.29293,-1.47487 10.29139,-0.67931 26.22,-1.73693 35.39691,-2.35033 9.17691,-0.61338 17.22209,-1.11523 17.87819,-1.11523 1.38164,0 3.07247,0.99112 4.28932,2.51432 0.8023,1.00425 0.28819,-1.30196 6.64987,29.82832 3.89997,19.08399 3.73702,18.13389 3.41201,19.89208 -0.34389,1.86017 -1.04974,3.19462 -3.25228,6.14853 -3.42424,4.59234 -3.90679,5.76246 -4.9006,11.88286 -1.22269,7.53035 -1.08611,8.28492 2.68416,14.82964 3.94334,6.8451 3.93562,6.79331 2.42909,16.2693 l -1.12295,7.06334 0.50761,1.05052 c 0.64187,1.32833 2.48136,2.96171 3.70718,3.29178 1.20025,0.32322 3.25741,1.94421 4.11834,3.24518 0.4745,0.71699 1.30032,3.34029 2.86522,9.10173 2.953,10.87171 2.92931,10.37463 1.05315,22.09719 -1.22761,7.67048 -1.39339,9.11584 -1.2933,11.27655 0.12679,2.73697 0.24224,3.14789 4.77237,16.97678 2.3179,7.07592 2.39872,7.3989 2.51209,10.03739 0.12619,2.94082 0.5765,-0.14469 -6.49976,44.55044 -0.87957,5.55565 -1.59886,10.46281 -1.59841,10.90479 0,0.44198 0.72415,2.47128 1.60826,4.50955 l 1.60742,3.70592 -0.49288,6.45537 c -0.60072,7.86797 -1.55124,21.11493 -2.26921,31.62515 l -0.53429,7.82131 0.67033,1.4641 c 0.49431,1.07976 1.2771,2.0602 2.98184,3.73475 3.73976,3.67349 3.92072,4.86044 1.38295,9.07109 -2.58177,4.28359 -3.91079,5.72188 -9.16569,9.91925 -1.64949,1.31753 -2.74434,3.01179 -2.91296,4.5077 -0.10889,0.9666 0.0454,1.47379 1.17433,3.86264 1.17421,2.48428 1.28916,2.87781 1.18996,4.07401 -0.15483,1.86571 -1.23101,3.41195 -4.13582,5.94172 -2.5225,2.1969 -3.74954,3.92353 -3.73928,5.2618 0.0209,2.79866 4.02064,5.94637 6.8929,5.42531 0.49968,-0.0907 2.69294,-0.98367 4.87387,-1.98446 7.12701,-3.27048 7.37247,-3.35064 17.10071,-5.58322 7.9973,-1.83531 7.37745,-1.628 26.27066,-8.78809 3.81669,-1.44641 10.28522,-3.69653 14.3745,-5.00027 6.92569,-2.20803 7.61251,-2.37954 10.02447,-2.5032 3.25279,-0.16677 8.10709,0.50815 9.27841,1.29002 0.92262,0.61585 1.63839,1.9403 1.63889,3.03265 0,0.69109 -0.73109,1.57866 -5.71857,6.93941 -3.14542,3.38084 -6.24027,6.63028 -6.87745,7.22098 -1.45628,1.35011 -3.62087,2.84664 -4.87569,3.37093 -0.52978,0.22136 -6.93631,1.91601 -14.2367,3.76592 -15.67354,3.97162 -15.91372,4.04355 -21.82382,6.53406 -9.4572,3.98529 -30.45255,12.14554 -32.18852,12.51073 -1.85256,0.38971 -6.82429,0.44171 -13.80585,0.14439 z"
       style="fill:#f05f40;fill-opacity:1;stroke:#000000;stroke-width:1.57868016;stroke-miterlimit:4;stroke-dasharray:none;stroke-opacity:1" />
  </g>
</svg>
