<?xml version="1.0" encoding="UTF-8" standalone="no"?>
<!-- Created with Inkscape (http://www.inkscape.org/) -->

<svg
   xmlns:dc="http://purl.org/dc/elements/1.1/"
   xmlns:cc="http://creativecommons.org/ns#"
   xmlns:rdf="http://www.w3.org/1999/02/22-rdf-syntax-ns#"
   xmlns:svg="http://www.w3.org/2000/svg"
   xmlns="http://www.w3.org/2000/svg"
   xmlns:sodipodi="http://sodipodi.sourceforge.net/DTD/sodipodi-0.dtd"
   xmlns:inkscape="http://www.inkscape.org/namespaces/inkscape"
   width="507.45435"
   height="314.89893"
   viewBox="0 0 507.45435 314.89892"
   version="1.1"
   id="svg2029"
   inkscape:version="0.92.3 (2405546, 2018-03-11)"
   sodipodi:docname="pennsylvania-map-outline.svg">
  <defs
     id="defs2023" />
  <sodipodi:namedview
     id="base"
     pagecolor="#ffffff"
     bordercolor="#666666"
     borderopacity="1.0"
     inkscape:pageopacity="0.0"
     inkscape:pageshadow="2"
     inkscape:zoom="0.7"
     inkscape:cx="169.28466"
     inkscape:cy="38.904154"
     inkscape:document-units="px"
     inkscape:current-layer="layer1"
     showgrid="false"
     units="px"
     fit-margin-top="5"
     fit-margin-left="5"
     fit-margin-right="5"
     fit-margin-bottom="5"
     inkscape:window-width="1280"
     inkscape:window-height="737"
     inkscape:window-x="-8"
     inkscape:window-y="-8"
     inkscape:window-maximized="1"
     inkscape:showpageshadow="false" />
  <metadata
     id="metadata2026">
    <rdf:RDF>
      <cc:Work
         rdf:about="">
        <dc:format>image/svg+xml</dc:format>
        <dc:type
           rdf:resource="http://purl.org/dc/dcmitype/StillImage" />
        <dc:title></dc:title>
      </cc:Work>
    </rdf:RDF>
  </metadata>
  <g
     inkscape:label="Layer 1"
     inkscape:groupmode="layer"
     id="layer1"
     transform="translate(-2.5612895,-126.32387)">
    <path
       inkscape:connector-curvature="0"
       id="path2048"
       d="m 111.93428,417.29392 c -1.776,-0.0964 -8.2032,-0.15671 -14.282657,-0.13364 -10.950609,0.0414 -42.980682,-0.35139 -66.445446,-0.81486 -6.694222,-0.13238 -14.317768,-0.24075 -16.941215,-0.24138 -2.93355,0 -5.0004155,-0.10584 -5.3686636,-0.2736 l -0.5987641,-0.27297 -0.1734486,-5.75072 c -0.1608744,-5.33394 -0.017692,-15.51354 0.5926602,-42.14049 0.1331037,-5.80623 0.3611933,-17.3193 0.5068743,-25.58461 0.1456779,-8.26532 0.3795428,-18.60472 0.519695,-22.97645 0.4419018,-13.7842 1.3683418,-58.01008 1.9538558,-93.27203 0.137242,-8.26531 0.315714,-16.1456 0.396575,-17.51176 0.08088,-1.36617 0.247314,-8.01693 0.369856,-14.77947 0.349289,-19.27462 0.690562,-30.07665 0.960507,-30.4019 0.134999,-0.16271 0.949655,-0.61563 1.810339,-1.00657 0.860681,-0.39094 2.459097,-1.13279 3.552029,-1.64852 2.352787,-1.11033 6.371383,-2.81167 9.314783,-3.94364 2.069533,-0.79587 6.964543,-3.23518 7.700218,-3.83719 0.440256,-0.36026 6.521976,-3.35612 11.847818,-5.83625 3.808966,-1.77372 6.838516,-3.43219 10.316255,-5.64741 3.287499,-2.09402 4.747152,-2.92998 6.08972,-3.48761 0.71689,-0.29761 1.622582,-0.76861 2.012636,-1.04635 0.390054,-0.2777 1.247282,-0.62558 1.904965,-0.77296 0.657651,-0.14723 3.012887,-1.16786 5.233819,-2.26773 4.076927,-2.01895 4.897348,-2.22162 5.112026,-1.2627 0.05244,0.23443 0.02212,5.73588 -0.06951,12.22519 -0.18577,13.29109 -0.277391,12.51971 1.734392,14.59272 1.844147,1.90025 2.578444,2.22251 5.496582,2.41223 5.646337,0.36708 106.106689,0.37258 140.715279,0.006 38.59235,-0.4069 77.55885,-1.03738 78.11995,-1.26406 0.20504,-0.0828 7.19101,-0.25654 15.52466,-0.38633 35.38904,-0.55077 42.74911,-0.68479 57.25485,-1.04249 8.40192,-0.20725 18.57366,-0.49621 22.60385,-0.64227 4.0302,-0.14596 10.62507,-0.37972 14.65527,-0.51917 4.0302,-0.13933 10.23385,-0.37486 13.78588,-0.52316 3.55203,-0.14817 7.85545,-0.22874 9.56318,-0.17882 3.06464,0.0897 3.13231,0.10426 5.21625,1.13001 2.73281,1.34497 4.38898,2.83324 6.2439,5.61085 2.15784,3.2313 3.04701,4.21367 5.2481,5.79846 1.44939,1.0436 2.35419,1.50051 3.49131,1.76314 1.87141,0.4322 4.73571,1.90083 5.69278,2.91887 4.33703,4.61329 5.88597,8.58836 6.53547,16.77194 0.58325,7.34888 0.80112,8.92837 1.56774,11.3655 1.18456,3.76579 3.55964,6.95168 7.61575,10.21558 2.12103,1.70678 8.19082,4.4134 10.79156,4.81211 2.60379,0.39919 4.50401,1.10824 5.99441,2.23676 3.55702,2.69348 3.82642,3.09017 3.61759,5.32658 -0.18641,1.9951 -1.17851,3.79401 -2.87432,5.21129 -2.01232,1.68182 -4.84699,4.6367 -5.81236,6.05895 -0.63273,0.93211 -1.50597,3.00395 -2.66969,6.33403 -1.40512,4.02082 -1.96986,5.29824 -3.01156,6.81183 -0.70517,1.02464 -1.89328,2.75717 -2.64021,3.85011 -0.74697,1.09292 -1.77322,2.49014 -2.28052,3.10492 -0.50733,0.61478 -1.76952,2.29145 -2.80484,3.72592 -1.13803,1.57668 -2.65061,3.28377 -3.82484,4.3166 -3.44402,3.02925 -5.04726,5.36819 -5.04726,7.36319 0,1.25913 0.33467,2.05955 2.05291,4.9097 1.64268,2.72488 2.03457,4.15711 1.85483,6.77938 -0.17977,2.62362 -1.28349,4.89523 -3.67111,7.5562 -2.16295,2.41055 -4.80879,5.8969 -5.36705,7.07193 -0.35773,0.75297 -0.39059,1.56473 -0.2597,6.41611 0.14597,5.41037 0.16682,5.58274 0.79916,6.66185 0.6351,1.08369 4.06631,4.06855 4.67702,4.06855 0.16618,0 0.93071,0.39328 1.69916,0.87395 1.64562,1.02931 3.52126,3.58678 3.9134,5.33589 0.13775,0.61478 0.25338,2.10028 0.25654,3.30112 0.006,1.71818 0.1169,2.40079 0.52682,3.20409 0.6985,1.36917 3.08666,3.69686 5.81331,5.66611 1.8844,1.36096 2.72321,2.22381 5.34048,5.49346 1.7077,2.13339 3.54871,4.36895 4.09118,4.9679 2.44186,2.69619 10.34657,10.15802 11.80603,11.14456 0.888,0.60024 1.75073,1.26595 1.91716,1.47933 0.1943,0.24928 0.30551,1.35565 0.31057,3.09184 0.006,2.57396 -0.0221,2.73168 -0.61658,3.28261 -0.34346,0.3183 -1.09608,0.7057 -1.6725,0.86092 -1.77278,0.47735 -5.61591,2.67578 -10.3727,5.93352 -0.75225,0.5152 -2.08625,1.29944 -2.96449,1.74277 -4.13544,2.08757 -5.73505,3.28503 -12.93118,9.68035 -1.59835,1.42055 -3.63768,4.41558 -4.26933,6.27022 -0.45523,1.33669 -2.6179,4.5478 -3.79151,5.62956 -1.80418,1.66305 -5.82076,3.45403 -9.59234,4.2772 -2.5611,0.55895 -5.03863,1.44673 -6.81362,2.44151 -3.57532,2.00379 -6.40591,2.28463 -10.3539,1.02721 -4.38493,-1.3966 -7.69028,-1.4402 -11.75824,-0.15513 -3.59345,1.13519 -5.66788,2.67654 -9.35993,6.95472 -2.11709,2.45321 -4.42677,4.43807 -6.15967,5.29347 -0.74299,0.3668 -2.02483,0.45457 -8.81798,0.60391 -4.37173,0.096 -9.79293,0.29034 -12.04713,0.43198 -2.25417,0.14154 -7.95481,0.32611 -12.6681,0.41024 -4.71328,0.084 -10.96258,0.31183 -13.88732,0.50622 -2.92478,0.1943 -8.29009,0.35117 -11.92294,0.34861 -3.63284,-0.002 -10.57328,0.11279 -15.42318,0.25654 -9.60497,0.28434 -167.98063,1.68671 -202.5654,1.79359 -11.74904,0.0363 -22.815,-0.0126 -24.59103,-0.10931 z"
       style="fill:#bbbbbb;stroke-width:3.15935516"
       sodipodi:nodetypes="ccccccscssscsccccccccccccccscccccccccccccsccccccccccccssccccccscccccccccccccccccccccccccccccccc" />
    <path
       sodipodi:nodetypes="ccccccscssscsccccccccccccccscccccccccccccsccccccccccccssccccccscccccccccccccccccccccccccccccccc"
       style="fill:#f05f40;fill-opacity:1;stroke:#000000;stroke-width:1.00309527;stroke-miterlimit:4;stroke-dasharray:none;stroke-opacity:1"
       d="m 111.93428,417.29392 c -1.776,-0.0964 -8.2032,-0.15671 -14.282657,-0.13364 -10.950609,0.0414 -42.980682,-0.35139 -66.445446,-0.81486 -6.694222,-0.13238 -14.317768,-0.24075 -16.941215,-0.24138 -2.93355,0 -5.0004155,-0.10584 -5.3686636,-0.2736 l -0.5987641,-0.27297 -0.1734486,-5.75072 c -0.1608744,-5.33394 -0.017692,-15.51354 0.5926602,-42.14049 0.1331037,-5.80623 0.3611933,-17.3193 0.5068743,-25.58461 0.1456779,-8.26532 0.3795428,-18.60472 0.519695,-22.97645 0.4419018,-13.7842 1.3683418,-58.01008 1.9538558,-93.27203 0.137242,-8.26531 0.315714,-16.1456 0.396575,-17.51176 0.08088,-1.36617 0.247314,-8.01693 0.369856,-14.77947 0.349289,-19.27462 0.690562,-30.07665 0.960507,-30.4019 0.134999,-0.16271 0.949655,-0.61563 1.810339,-1.00657 0.860681,-0.39094 2.459097,-1.13279 3.552029,-1.64852 2.352787,-1.11033 6.371383,-2.81167 9.314783,-3.94364 2.069533,-0.79587 6.964543,-3.23518 7.700218,-3.83719 0.440256,-0.36026 6.521976,-3.35612 11.847818,-5.83625 3.808966,-1.77372 6.838516,-3.43219 10.316255,-5.64741 3.287499,-2.09402 4.747152,-2.92998 6.08972,-3.48761 0.71689,-0.29761 1.622582,-0.76861 2.012636,-1.04635 0.390054,-0.2777 1.247282,-0.62558 1.904965,-0.77296 0.657651,-0.14723 3.012887,-1.16786 5.233819,-2.26773 4.076927,-2.01895 4.897348,-2.22162 5.112026,-1.2627 0.05244,0.23443 0.02212,5.73588 -0.06951,12.22519 -0.18577,13.29109 -0.277391,12.51971 1.734392,14.59272 1.844147,1.90025 2.578444,2.22251 5.496582,2.41223 5.646337,0.36708 106.106689,0.37258 140.715279,0.006 38.59235,-0.4069 77.55885,-1.03738 78.11995,-1.26406 0.20504,-0.0828 7.19101,-0.25654 15.52466,-0.38633 35.38904,-0.55077 42.74911,-0.68479 57.25485,-1.04249 8.40192,-0.20725 18.57366,-0.49621 22.60385,-0.64227 4.0302,-0.14596 10.62507,-0.37972 14.65527,-0.51917 4.0302,-0.13933 10.23385,-0.37486 13.78588,-0.52316 3.55203,-0.14817 7.85545,-0.22874 9.56318,-0.17882 3.06464,0.0897 3.13231,0.10426 5.21625,1.13001 2.73281,1.34497 4.38898,2.83324 6.2439,5.61085 2.15784,3.2313 3.04701,4.21367 5.2481,5.79846 1.44939,1.0436 2.35419,1.50051 3.49131,1.76314 1.87141,0.4322 4.73571,1.90083 5.69278,2.91887 4.33703,4.61329 5.88597,8.58836 6.53547,16.77194 0.58325,7.34888 0.80112,8.92837 1.56774,11.3655 1.18456,3.76579 3.55964,6.95168 7.61575,10.21558 2.12103,1.70678 8.19082,4.4134 10.79156,4.81211 2.60379,0.39919 4.50401,1.10824 5.99441,2.23676 3.55702,2.69348 3.82642,3.09017 3.61759,5.32658 -0.18641,1.9951 -1.17851,3.79401 -2.87432,5.21129 -2.01232,1.68182 -4.84699,4.6367 -5.81236,6.05895 -0.63273,0.93211 -1.50597,3.00395 -2.66969,6.33403 -1.40512,4.02082 -1.96986,5.29824 -3.01156,6.81183 -0.70517,1.02464 -1.89328,2.75717 -2.64021,3.85011 -0.74697,1.09292 -1.77322,2.49014 -2.28052,3.10492 -0.50733,0.61478 -1.76952,2.29145 -2.80484,3.72592 -1.13803,1.57668 -2.65061,3.28377 -3.82484,4.3166 -3.44402,3.02925 -5.04726,5.36819 -5.04726,7.36319 0,1.25913 0.33467,2.05955 2.05291,4.9097 1.64268,2.72488 2.03457,4.15711 1.85483,6.77938 -0.17977,2.62362 -1.28349,4.89523 -3.67111,7.5562 -2.16295,2.41055 -4.80879,5.8969 -5.36705,7.07193 -0.35773,0.75297 -0.39059,1.56473 -0.2597,6.41611 0.14597,5.41037 0.16682,5.58274 0.79916,6.66185 0.6351,1.08369 4.06631,4.06855 4.67702,4.06855 0.16618,0 0.93071,0.39328 1.69916,0.87395 1.64562,1.02931 3.52126,3.58678 3.9134,5.33589 0.13775,0.61478 0.25338,2.10028 0.25654,3.30112 0.006,1.71818 0.1169,2.40079 0.52682,3.20409 0.6985,1.36917 3.08666,3.69686 5.81331,5.66611 1.8844,1.36096 2.72321,2.22381 5.34048,5.49346 1.7077,2.13339 3.54871,4.36895 4.09118,4.9679 2.44186,2.69619 10.34657,10.15802 11.80603,11.14456 0.888,0.60024 1.75073,1.26595 1.91716,1.47933 0.1943,0.24928 0.30551,1.35565 0.31057,3.09184 0.006,2.57396 -0.0221,2.73168 -0.61658,3.28261 -0.34346,0.3183 -1.09608,0.7057 -1.6725,0.86092 -1.77278,0.47735 -5.61591,2.67578 -10.3727,5.93352 -0.75225,0.5152 -2.08625,1.29944 -2.96449,1.74277 -4.13544,2.08757 -5.73505,3.28503 -12.93118,9.68035 -1.59835,1.42055 -3.63768,4.41558 -4.26933,6.27022 -0.45523,1.33669 -2.6179,4.5478 -3.79151,5.62956 -1.80418,1.66305 -5.82076,3.45403 -9.59234,4.2772 -2.5611,0.55895 -5.03863,1.44673 -6.81362,2.44151 -3.57532,2.00379 -6.40591,2.28463 -10.3539,1.02721 -4.38493,-1.3966 -7.69028,-1.4402 -11.75824,-0.15513 -3.59345,1.13519 -5.66788,2.67654 -9.35993,6.95472 -2.11709,2.45321 -4.42677,4.43807 -6.15967,5.29347 -0.74299,0.3668 -2.02483,0.45457 -8.81798,0.60391 -4.37173,0.096 -9.79293,0.29034 -12.04713,0.43198 -2.25417,0.14154 -7.95481,0.32611 -12.6681,0.41024 -4.71328,0.084 -10.96258,0.31183 -13.88732,0.50622 -2.92478,0.1943 -8.29009,0.35117 -11.92294,0.34861 -3.63284,-0.002 -10.57328,0.11279 -15.42318,0.25654 -9.60497,0.28434 -167.98063,1.68671 -202.5654,1.79359 -11.74904,0.0363 -22.815,-0.0126 -24.59103,-0.10931 z"
       id="path2056"
       inkscape:connector-curvature="0" />
    <text
       xml:space="preserve"
       style="font-style:normal;font-weight:normal;font-size:33.43650818px;line-height:1.25;font-family:sans-serif;letter-spacing:0px;word-spacing:0px;fill:#000000;fill-opacity:1;stroke:none;stroke-width:0.83591264"
       x="345.07541"
       y="436.05408"
       id="text2060"><tspan
         sodipodi:role="line"
         id="tspan2058"
         x="345.07541"
         y="436.05408"
         style="font-size:11.14550304px;fill:#646464;fill-opacity:1;stroke-width:0.83591264"></tspan></text>
  </g>
</svg>
